<?xml version="1.0" encoding="iso-8859-1"?>
<!-- Uploaded to: SVG Repo, www.svgrepo.com, Generator: SVG Repo Mixer Tools -->
<svg width="26" height="26" version="1.1" id="Layer_1" xmlns="http://www.w3.org/2000/svg" xmlns:xlink="http://www.w3.org/1999/xlink" 
	 viewBox="0 0 512 512" xml:space="preserve">
<circle style="fill:#273B7A;" cx="256" cy="256" r="256"/>
<path style="fill:#121149;" d="M507.347,304.728L306.24,103.619l-50.681-3.92v159.308l-37.772-37.772l-122.971,7.983L246.46,380.862
	l-116.058,24.193l106.217,106.217c6.397,0.479,12.86,0.726,19.382,0.726C380.719,512,484.59,422.805,507.347,304.728z"/>
<polygon style="fill:#FFFFFF;" points="130.401,405.056 369.038,405.056 369.038,229.217 142.96,229.217 "/>
<polygon style="fill:#D35933;" points="256,405.056 381.599,405.056 369.038,229.217 256,229.217 "/>
<rect x="299.96" y="229.211" style="fill:#FFFFFF;" width="37.679" height="175.838"/>
<rect x="174.356" y="229.211" style="fill:#FF7F4F;" width="37.679" height="175.838"/>
<path style="fill:#59595B;" d="M218.321,405.056C255.493,364.711,256,304.576,256,304.576s0.507,60.135,37.679,100.48H218.321z"/>
<path style="fill:#272525;" d="M256,304.576c0,0-0.034,3.412-0.574,9.107v91.37h38.253C256.507,364.713,256,304.576,256,304.576z"/>
<path style="fill:#D35933;" d="M94.815,229.217C199.016,196.486,256,128.738,256,128.738s56.984,67.748,161.185,100.48
	C417.185,229.217,288.563,268.8,94.815,229.217z"/>
<path style="fill:#B54324;" d="M417.185,229.217C313.004,196.492,256.022,128.765,256,128.738v118.024
	C356.614,247.855,417.185,229.217,417.185,229.217z"/>
<path style="fill:#FFFFFF;" d="M256,128.738c-0.014,0.043-23.173,68.594-65.998,114.598c52.284,4.811,97.287,4.039,133.117,1.186
	C279.571,198.513,256.005,128.757,256,128.738L256,128.738z"/>
<path style="fill:#D0D1D3;" d="M323.119,244.524c-43.527-45.989-67.089-115.7-67.119-115.784v118.013
	C280.931,247.024,303.419,246.093,323.119,244.524z"/>
<polygon style="fill:#FFFFFF;" points="306.24,103.619 256,128.74 256,78.5 "/>
</svg>